<svg xmlns="http://www.w3.org/2000/svg" xmlns:xlink="http://www.w3.org/1999/xlink" width="500" zoomAndPan="magnify" viewBox="0 0 375 374.999991" height="500" preserveAspectRatio="xMidYMid meet" version="1.0"><defs><g/></defs><path fill="#9b4a23" d="M 145.160156 138.902344 C 139.910156 126.898438 127.941406 124.613281 119.558594 135.238281 C 114.296875 141.90625 112.191406 153.695312 116.089844 163.53125 C 120.894531 175.625 133.957031 177.964844 141.875 167.269531 C 146.894531 160.480469 149.503906 148.804688 145.160156 138.902344 Z M 31.722656 132.203125 C 21.101562 141.546875 29.234375 164.113281 48.710938 171.617188 C 66.253906 178.371094 77.660156 158.664062 60.5 139.339844 C 54.023438 132.042969 39.933594 124.96875 31.722656 132.203125 Z M 19.199219 200.898438 C 25.046875 209.039062 35.484375 213.804688 45.074219 213.109375 C 58.289062 212.136719 63.96875 200.5625 56.402344 189.738281 C 49.847656 180.363281 38.277344 177.015625 30.511719 177.582031 C 17.726562 178.523438 11.476562 190.152344 19.199219 200.898438 Z M 146.832031 196.519531 C 143.566406 186.003906 126.527344 178.339844 116.964844 175.351562 C 113.035156 174.132812 107.496094 172.867188 103.289062 172.46875 C 87.710938 170.988281 79.914062 174.730469 72.933594 189.539062 C 70.765625 194.128906 69.296875 198.183594 68.160156 202.738281 C 67.851562 203.972656 67.605469 204.890625 67.40625 206.164062 L 66.101562 213.03125 C 64.535156 221.539062 64.382812 240.574219 72.746094 244.957031 C 81.710938 249.664062 93.542969 239.160156 100.894531 232.011719 C 104.210938 228.777344 109.492188 223.3125 113.726562 221.074219 C 123.152344 216.050781 132.820312 221.921875 142.996094 209.765625 C 145.957031 206.253906 148.277344 201.175781 146.832031 196.519531 Z M 78.503906 108.449219 C 75.878906 110.585938 74.589844 112.433594 73.394531 114.925781 C 71.949219 117.992188 71.890625 119.257812 71.273438 122.070312 C 70.660156 124.898438 70.570312 126.652344 70.707031 129.644531 C 71.597656 148.085938 86.316406 161.605469 97.8125 152.085938 C 105.363281 145.839844 106.667969 132.539062 103.8125 122.828125 C 102.078125 116.859375 98.6875 111.246094 93.773438 108.011719 C 89.859375 105.453125 83.796875 104.1875 78.503906 108.449219 Z M 78.503906 108.449219 " fill-opacity="1" fill-rule="evenodd"/><g fill="#9b4a23" fill-opacity="1"><g transform="translate(208.72316, 170.374195)"><g><path d="M 23.203125 -25.1875 C 23.203125 -23.488281 22.832031 -21.828125 22.09375 -20.203125 C 21.363281 -18.578125 20.390625 -17.113281 19.171875 -15.8125 C 17.953125 -14.507812 16.554688 -13.441406 14.984375 -12.609375 C 13.421875 -11.785156 11.804688 -11.328125 10.140625 -11.234375 C 10.109375 -10.671875 10.082031 -9.957031 10.0625 -9.09375 C 10.050781 -8.226562 10 -7.328125 9.90625 -6.390625 C 9.8125 -5.453125 9.675781 -4.507812 9.5 -3.5625 C 9.332031 -2.625 9.082031 -1.78125 8.75 -1.03125 C 8.425781 -0.28125 8.003906 0.328125 7.484375 0.796875 C 6.972656 1.265625 6.34375 1.5 5.59375 1.5 C 4.71875 1.5 4.019531 1.207031 3.5 0.625 C 2.976562 0.0507812 2.582031 -0.640625 2.3125 -1.453125 C 2.050781 -2.265625 1.875 -3.117188 1.78125 -4.015625 C 1.6875 -4.910156 1.625 -5.671875 1.59375 -6.296875 C 1.53125 -7.203125 1.488281 -8.09375 1.46875 -8.96875 C 1.457031 -9.84375 1.453125 -10.738281 1.453125 -11.65625 C 1.453125 -12.0625 1.453125 -12.816406 1.453125 -13.921875 C 1.453125 -15.035156 1.457031 -16.304688 1.46875 -17.734375 C 1.488281 -19.160156 1.515625 -20.648438 1.546875 -22.203125 C 1.578125 -23.753906 1.625 -25.191406 1.6875 -26.515625 C 1.75 -27.847656 1.816406 -28.984375 1.890625 -29.921875 C 1.972656 -30.867188 2.078125 -31.421875 2.203125 -31.578125 C 2.234375 -31.609375 2.328125 -31.675781 2.484375 -31.78125 C 2.640625 -31.894531 2.8125 -32.003906 3 -32.109375 C 3.1875 -32.222656 3.359375 -32.328125 3.515625 -32.421875 C 3.679688 -32.515625 3.796875 -32.578125 3.859375 -32.609375 C 5.296875 -33.421875 6.875 -34.125 8.59375 -34.71875 C 10.320312 -35.3125 12.03125 -35.609375 13.71875 -35.609375 C 15.15625 -35.609375 16.460938 -35.316406 17.640625 -34.734375 C 18.816406 -34.160156 19.816406 -33.394531 20.640625 -32.4375 C 21.472656 -31.488281 22.109375 -30.378906 22.546875 -29.109375 C 22.984375 -27.835938 23.203125 -26.53125 23.203125 -25.1875 Z M 15.078125 -24.109375 C 15.078125 -24.734375 14.925781 -25.28125 14.625 -25.75 C 14.332031 -26.21875 13.84375 -26.453125 13.15625 -26.453125 C 12.5625 -26.453125 11.96875 -26.332031 11.375 -26.09375 C 10.78125 -25.863281 10.226562 -25.625 9.71875 -25.375 C 9.8125 -24.269531 9.894531 -23.203125 9.96875 -22.171875 C 10.050781 -21.140625 10.0625 -20.078125 10 -18.984375 C 10.507812 -19.234375 11.0625 -19.519531 11.65625 -19.84375 C 12.25 -20.175781 12.796875 -20.546875 13.296875 -20.953125 C 13.796875 -21.359375 14.21875 -21.816406 14.5625 -22.328125 C 14.90625 -22.847656 15.078125 -23.441406 15.078125 -24.109375 Z M 15.078125 -24.109375 "/></g></g></g><g fill="#9b4a23" fill-opacity="1"><g transform="translate(236.894144, 170.374195)"><g><path d="M 25.140625 -6.953125 C 25.140625 -6.328125 25.082031 -5.570312 24.96875 -4.6875 C 24.863281 -3.8125 24.648438 -2.972656 24.328125 -2.171875 C 24.015625 -1.378906 23.59375 -0.707031 23.0625 -0.15625 C 22.53125 0.382812 21.828125 0.65625 20.953125 0.65625 C 19.796875 0.65625 18.925781 0.234375 18.34375 -0.609375 C 17.769531 -1.453125 17.351562 -2.460938 17.09375 -3.640625 C 16.84375 -4.816406 16.691406 -6.015625 16.640625 -7.234375 C 16.597656 -8.453125 16.5625 -9.421875 16.53125 -10.140625 C 14.28125 -9.765625 12.054688 -9.4375 9.859375 -9.15625 C 9.796875 -8.4375 9.660156 -7.546875 9.453125 -6.484375 C 9.253906 -5.421875 8.941406 -4.394531 8.515625 -3.40625 C 8.097656 -2.414062 7.550781 -1.5625 6.875 -0.84375 C 6.207031 -0.125 5.390625 0.234375 4.421875 0.234375 C 3.660156 0.234375 3.066406 -0.0351562 2.640625 -0.578125 C 2.222656 -1.128906 1.90625 -1.78125 1.6875 -2.53125 C 1.46875 -3.289062 1.332031 -4.066406 1.28125 -4.859375 C 1.238281 -5.660156 1.21875 -6.328125 1.21875 -6.859375 C 1.21875 -8.640625 1.359375 -10.398438 1.640625 -12.140625 C 1.921875 -13.878906 2.25 -15.613281 2.625 -17.34375 C 2.8125 -18.25 3.0625 -19.3125 3.375 -20.53125 C 3.695312 -21.75 4.082031 -23.007812 4.53125 -24.3125 C 4.988281 -25.613281 5.519531 -26.894531 6.125 -28.15625 C 6.738281 -29.425781 7.4375 -30.5625 8.21875 -31.5625 C 9 -32.570312 9.890625 -33.390625 10.890625 -34.015625 C 11.898438 -34.640625 13.015625 -34.953125 14.234375 -34.953125 C 15.421875 -34.953125 16.453125 -34.6875 17.328125 -34.15625 C 18.210938 -33.625 18.984375 -32.914062 19.640625 -32.03125 C 20.296875 -31.15625 20.84375 -30.160156 21.28125 -29.046875 C 21.71875 -27.941406 22.082031 -26.816406 22.375 -25.671875 C 22.675781 -24.523438 22.925781 -23.40625 23.125 -22.3125 C 23.332031 -21.21875 23.515625 -20.25 23.671875 -19.40625 C 24.085938 -17.363281 24.4375 -15.300781 24.71875 -13.21875 C 25 -11.132812 25.140625 -9.046875 25.140625 -6.953125 Z M 16.0625 -18.375 C 16.0625 -18.75 16.035156 -19.363281 15.984375 -20.21875 C 15.941406 -21.082031 15.84375 -21.945312 15.6875 -22.8125 C 15.53125 -23.675781 15.285156 -24.441406 14.953125 -25.109375 C 14.628906 -25.785156 14.1875 -26.125 13.625 -26.125 C 13.3125 -26.125 13.015625 -25.910156 12.734375 -25.484375 C 12.453125 -25.066406 12.203125 -24.535156 11.984375 -23.890625 C 11.765625 -23.242188 11.566406 -22.53125 11.390625 -21.75 C 11.222656 -20.96875 11.078125 -20.21875 10.953125 -19.5 C 10.828125 -18.78125 10.734375 -18.128906 10.671875 -17.546875 C 10.609375 -16.960938 10.5625 -16.546875 10.53125 -16.296875 C 12.40625 -16.453125 14.25 -16.6875 16.0625 -17 Z M 16.0625 -18.375 "/></g></g></g><g fill="#9b4a23" fill-opacity="1"><g transform="translate(268.917412, 170.374195)"><g><path d="M 30.296875 -27.578125 C 30.296875 -25.703125 30.171875 -23.847656 29.921875 -22.015625 C 29.671875 -20.179688 29.375 -18.367188 29.03125 -16.578125 C 28.9375 -16.109375 28.796875 -15.347656 28.609375 -14.296875 C 28.421875 -13.253906 28.191406 -12.085938 27.921875 -10.796875 C 27.660156 -9.515625 27.34375 -8.1875 26.96875 -6.8125 C 26.59375 -5.4375 26.175781 -4.179688 25.71875 -3.046875 C 25.269531 -1.921875 24.769531 -0.988281 24.21875 -0.25 C 23.664062 0.476562 23.078125 0.84375 22.453125 0.84375 C 21.828125 0.84375 21.222656 0.53125 20.640625 -0.09375 C 20.066406 -0.71875 19.535156 -1.507812 19.046875 -2.46875 C 18.566406 -3.425781 18.117188 -4.5 17.703125 -5.6875 C 17.296875 -6.875 16.941406 -8.023438 16.640625 -9.140625 C 16.347656 -10.253906 16.097656 -11.269531 15.890625 -12.1875 C 15.691406 -13.113281 15.546875 -13.8125 15.453125 -14.28125 C 15.328125 -13.875 15.128906 -13.222656 14.859375 -12.328125 C 14.597656 -11.441406 14.265625 -10.441406 13.859375 -9.328125 C 13.453125 -8.210938 13 -7.078125 12.5 -5.921875 C 12 -4.765625 11.472656 -3.695312 10.921875 -2.71875 C 10.367188 -1.75 9.796875 -0.953125 9.203125 -0.328125 C 8.609375 0.296875 8.015625 0.609375 7.421875 0.609375 C 6.640625 0.609375 5.953125 0.265625 5.359375 -0.421875 C 4.765625 -1.109375 4.257812 -1.992188 3.84375 -3.078125 C 3.4375 -4.160156 3.09375 -5.363281 2.8125 -6.6875 C 2.53125 -8.019531 2.3125 -9.335938 2.15625 -10.640625 C 2 -11.941406 1.875 -13.15625 1.78125 -14.28125 C 1.6875 -15.40625 1.625 -16.296875 1.59375 -16.953125 C 1.5 -18.460938 1.410156 -19.9375 1.328125 -21.375 C 1.253906 -22.8125 1.21875 -24.285156 1.21875 -25.796875 C 1.21875 -26.328125 1.234375 -27.050781 1.265625 -27.96875 C 1.296875 -28.894531 1.410156 -29.804688 1.609375 -30.703125 C 1.816406 -31.597656 2.128906 -32.378906 2.546875 -33.046875 C 2.972656 -33.722656 3.597656 -34.09375 4.421875 -34.15625 C 5.109375 -34.1875 5.703125 -33.90625 6.203125 -33.3125 C 6.703125 -32.71875 7.125 -31.925781 7.46875 -30.9375 C 7.8125 -29.945312 8.082031 -28.847656 8.28125 -27.640625 C 8.488281 -26.441406 8.644531 -25.273438 8.75 -24.140625 C 8.863281 -23.015625 8.9375 -21.984375 8.96875 -21.046875 C 9 -20.109375 9 -19.421875 8.96875 -18.984375 L 8.921875 -17.765625 C 9.015625 -18.171875 9.175781 -18.8125 9.40625 -19.6875 C 9.644531 -20.5625 9.9375 -21.554688 10.28125 -22.671875 C 10.632812 -23.785156 11.003906 -24.925781 11.390625 -26.09375 C 11.785156 -27.269531 12.203125 -28.34375 12.640625 -29.3125 C 13.078125 -30.28125 13.515625 -31.085938 13.953125 -31.734375 C 14.390625 -32.378906 14.8125 -32.71875 15.21875 -32.75 C 15.75 -32.78125 16.257812 -32.460938 16.75 -31.796875 C 17.238281 -31.140625 17.675781 -30.285156 18.0625 -29.234375 C 18.457031 -28.191406 18.8125 -27.023438 19.125 -25.734375 C 19.4375 -24.453125 19.707031 -23.207031 19.9375 -22 C 20.175781 -20.800781 20.359375 -19.71875 20.484375 -18.75 C 20.609375 -17.78125 20.703125 -17.085938 20.765625 -16.671875 C 20.796875 -17.179688 20.875 -17.972656 21 -19.046875 C 21.125 -20.128906 21.296875 -21.335938 21.515625 -22.671875 C 21.734375 -24.003906 22.003906 -25.363281 22.328125 -26.75 C 22.660156 -28.144531 23.046875 -29.421875 23.484375 -30.578125 C 23.929688 -31.742188 24.4375 -32.691406 25 -33.421875 C 25.5625 -34.160156 26.1875 -34.53125 26.875 -34.53125 C 27.65625 -34.53125 28.28125 -34.269531 28.75 -33.75 C 29.21875 -33.238281 29.5625 -32.613281 29.78125 -31.875 C 30 -31.132812 30.140625 -30.363281 30.203125 -29.5625 C 30.265625 -28.769531 30.296875 -28.109375 30.296875 -27.578125 Z M 30.296875 -27.578125 "/></g></g></g><g fill="#9b4a23" fill-opacity="1"><g transform="translate(304.9339, 170.374195)"><g><path d="M 16.765625 -32.984375 C 16.765625 -32.265625 16.535156 -31.632812 16.078125 -31.09375 C 15.628906 -30.5625 15.09375 -30.125 14.46875 -29.78125 C 13.90625 -29.4375 13.328125 -29.066406 12.734375 -28.671875 C 12.140625 -28.285156 11.59375 -27.847656 11.09375 -27.359375 C 10.59375 -26.878906 10.179688 -26.34375 9.859375 -25.75 C 9.546875 -25.15625 9.390625 -24.476562 9.390625 -23.71875 C 9.390625 -23.0625 9.546875 -22.46875 9.859375 -21.9375 C 10.179688 -21.40625 10.566406 -20.878906 11.015625 -20.359375 C 11.472656 -19.847656 11.972656 -19.316406 12.515625 -18.765625 C 13.066406 -18.222656 13.566406 -17.613281 14.015625 -16.9375 C 14.472656 -16.257812 14.859375 -15.5 15.171875 -14.65625 C 15.484375 -13.8125 15.640625 -12.828125 15.640625 -11.703125 C 15.640625 -10.921875 15.472656 -10.035156 15.140625 -9.046875 C 14.816406 -8.054688 14.375 -7.0625 13.8125 -6.0625 C 13.25 -5.0625 12.582031 -4.085938 11.8125 -3.140625 C 11.050781 -2.203125 10.238281 -1.363281 9.375 -0.625 C 8.507812 0.101562 7.609375 0.691406 6.671875 1.140625 C 5.734375 1.597656 4.828125 1.828125 3.953125 1.828125 C 2.972656 1.828125 2.109375 1.5625 1.359375 1.03125 C 0.609375 0.5 0.234375 -0.296875 0.234375 -1.359375 C 0.234375 -2.078125 0.40625 -2.742188 0.75 -3.359375 C 1.09375 -3.972656 1.515625 -4.5625 2.015625 -5.125 C 2.515625 -5.6875 3.070312 -6.234375 3.6875 -6.765625 C 4.300781 -7.296875 4.859375 -7.828125 5.359375 -8.359375 C 5.859375 -8.890625 6.28125 -9.445312 6.625 -10.03125 C 6.96875 -10.613281 7.140625 -11.234375 7.140625 -11.890625 C 7.140625 -12.796875 6.816406 -13.722656 6.171875 -14.671875 C 5.535156 -15.628906 4.820312 -16.617188 4.03125 -17.640625 C 3.25 -18.660156 2.535156 -19.703125 1.890625 -20.765625 C 1.253906 -21.828125 0.9375 -22.90625 0.9375 -24 C 0.9375 -25.351562 1.296875 -26.769531 2.015625 -28.25 C 2.734375 -29.738281 3.65625 -31.101562 4.78125 -32.34375 C 5.914062 -33.582031 7.1875 -34.609375 8.59375 -35.421875 C 10.007812 -36.234375 11.40625 -36.640625 12.78125 -36.640625 C 13.875 -36.640625 14.8125 -36.3125 15.59375 -35.65625 C 16.375 -35 16.765625 -34.109375 16.765625 -32.984375 Z M 16.765625 -32.984375 "/></g></g></g><g fill="#9b4a23" fill-opacity="1"><g transform="translate(327.1677, 170.374195)"><g/></g></g><g fill="#9b4a23" fill-opacity="1"><g transform="translate(181.546634, 227.286568)"><g><path d="M 23.203125 -25.1875 C 23.203125 -23.488281 22.832031 -21.828125 22.09375 -20.203125 C 21.363281 -18.578125 20.390625 -17.113281 19.171875 -15.8125 C 17.953125 -14.507812 16.554688 -13.441406 14.984375 -12.609375 C 13.421875 -11.785156 11.804688 -11.328125 10.140625 -11.234375 C 10.109375 -10.671875 10.082031 -9.957031 10.0625 -9.09375 C 10.050781 -8.226562 10 -7.328125 9.90625 -6.390625 C 9.8125 -5.453125 9.675781 -4.507812 9.5 -3.5625 C 9.332031 -2.625 9.082031 -1.78125 8.75 -1.03125 C 8.425781 -0.28125 8.003906 0.328125 7.484375 0.796875 C 6.972656 1.265625 6.34375 1.5 5.59375 1.5 C 4.71875 1.5 4.019531 1.207031 3.5 0.625 C 2.976562 0.0507812 2.582031 -0.640625 2.3125 -1.453125 C 2.050781 -2.265625 1.875 -3.117188 1.78125 -4.015625 C 1.6875 -4.910156 1.625 -5.671875 1.59375 -6.296875 C 1.53125 -7.203125 1.488281 -8.09375 1.46875 -8.96875 C 1.457031 -9.84375 1.453125 -10.738281 1.453125 -11.65625 C 1.453125 -12.0625 1.453125 -12.816406 1.453125 -13.921875 C 1.453125 -15.035156 1.457031 -16.304688 1.46875 -17.734375 C 1.488281 -19.160156 1.515625 -20.648438 1.546875 -22.203125 C 1.578125 -23.753906 1.625 -25.191406 1.6875 -26.515625 C 1.75 -27.847656 1.816406 -28.984375 1.890625 -29.921875 C 1.972656 -30.867188 2.078125 -31.421875 2.203125 -31.578125 C 2.234375 -31.609375 2.328125 -31.675781 2.484375 -31.78125 C 2.640625 -31.894531 2.8125 -32.003906 3 -32.109375 C 3.1875 -32.222656 3.359375 -32.328125 3.515625 -32.421875 C 3.679688 -32.515625 3.796875 -32.578125 3.859375 -32.609375 C 5.296875 -33.421875 6.875 -34.125 8.59375 -34.71875 C 10.320312 -35.3125 12.03125 -35.609375 13.71875 -35.609375 C 15.15625 -35.609375 16.460938 -35.316406 17.640625 -34.734375 C 18.816406 -34.160156 19.816406 -33.394531 20.640625 -32.4375 C 21.472656 -31.488281 22.109375 -30.378906 22.546875 -29.109375 C 22.984375 -27.835938 23.203125 -26.53125 23.203125 -25.1875 Z M 15.078125 -24.109375 C 15.078125 -24.734375 14.925781 -25.28125 14.625 -25.75 C 14.332031 -26.21875 13.84375 -26.453125 13.15625 -26.453125 C 12.5625 -26.453125 11.96875 -26.332031 11.375 -26.09375 C 10.78125 -25.863281 10.226562 -25.625 9.71875 -25.375 C 9.8125 -24.269531 9.894531 -23.203125 9.96875 -22.171875 C 10.050781 -21.140625 10.0625 -20.078125 10 -18.984375 C 10.507812 -19.234375 11.0625 -19.519531 11.65625 -19.84375 C 12.25 -20.175781 12.796875 -20.546875 13.296875 -20.953125 C 13.796875 -21.359375 14.21875 -21.816406 14.5625 -22.328125 C 14.90625 -22.847656 15.078125 -23.441406 15.078125 -24.109375 Z M 15.078125 -24.109375 "/></g></g></g><g fill="#9b4a23" fill-opacity="1"><g transform="translate(209.717616, 227.286568)"><g><path d="M 21.890625 -7.375 C 21.890625 -6.78125 21.734375 -6.203125 21.421875 -5.640625 C 21.109375 -5.109375 20.375 -4.476562 19.21875 -3.75 C 18.0625 -3.03125 16.773438 -2.347656 15.359375 -1.703125 C 13.953125 -1.066406 12.585938 -0.519531 11.265625 -0.0625 C 9.953125 0.382812 8.984375 0.609375 8.359375 0.609375 C 7.921875 0.609375 7.40625 0.503906 6.8125 0.296875 C 6.21875 0.0976562 5.625 -0.15625 5.03125 -0.46875 C 4.4375 -0.78125 3.894531 -1.140625 3.40625 -1.546875 C 2.914062 -1.953125 2.5625 -2.34375 2.34375 -2.71875 C 2.21875 -2.9375 2.097656 -3.375 1.984375 -4.03125 C 1.878906 -4.695312 1.785156 -5.46875 1.703125 -6.34375 C 1.628906 -7.21875 1.5625 -8.148438 1.5 -9.140625 C 1.4375 -10.128906 1.378906 -11.066406 1.328125 -11.953125 C 1.285156 -12.847656 1.253906 -13.640625 1.234375 -14.328125 C 1.222656 -15.015625 1.21875 -15.515625 1.21875 -15.828125 C 1.21875 -16.992188 1.253906 -18.328125 1.328125 -19.828125 C 1.410156 -21.328125 1.5625 -22.835938 1.78125 -24.359375 C 2 -25.878906 2.316406 -27.332031 2.734375 -28.71875 C 3.160156 -30.113281 3.738281 -31.300781 4.46875 -32.28125 C 4.6875 -32.5625 5.125 -32.859375 5.78125 -33.171875 C 6.4375 -33.484375 7.207031 -33.78125 8.09375 -34.0625 C 8.988281 -34.34375 9.953125 -34.609375 10.984375 -34.859375 C 12.023438 -35.109375 13.019531 -35.316406 13.96875 -35.484375 C 14.925781 -35.660156 15.796875 -35.800781 16.578125 -35.90625 C 17.367188 -36.019531 17.96875 -36.078125 18.375 -36.078125 C 18.84375 -36.078125 19.285156 -35.972656 19.703125 -35.765625 C 20.128906 -35.566406 20.488281 -35.296875 20.78125 -34.953125 C 21.082031 -34.609375 21.316406 -34.222656 21.484375 -33.796875 C 21.660156 -33.378906 21.75 -32.9375 21.75 -32.46875 C 21.75 -32.0625 21.691406 -31.71875 21.578125 -31.4375 C 21.472656 -31.15625 21.3125 -30.835938 21.09375 -30.484375 C 20.78125 -30.078125 20.125 -29.59375 19.125 -29.03125 C 18.125 -28.46875 17.035156 -27.910156 15.859375 -27.359375 C 14.679688 -26.816406 13.550781 -26.328125 12.46875 -25.890625 C 11.394531 -25.453125 10.632812 -25.140625 10.1875 -24.953125 C 10.0625 -24.222656 9.925781 -23.488281 9.78125 -22.75 C 9.644531 -22.019531 9.546875 -21.28125 9.484375 -20.53125 C 10.460938 -21.03125 11.5625 -21.5 12.78125 -21.9375 C 14 -22.375 15.15625 -22.59375 16.25 -22.59375 C 18.476562 -22.59375 19.59375 -21.5 19.59375 -19.3125 C 19.59375 -18.78125 19.488281 -18.3125 19.28125 -17.90625 C 19.082031 -17.5 18.816406 -17.132812 18.484375 -16.8125 C 18.160156 -16.5 17.785156 -16.222656 17.359375 -15.984375 C 16.929688 -15.753906 16.515625 -15.53125 16.109375 -15.3125 C 15.109375 -14.78125 14.0625 -14.316406 12.96875 -13.921875 C 11.875 -13.535156 10.773438 -13.15625 9.671875 -12.78125 C 9.609375 -12.53125 9.546875 -12.253906 9.484375 -11.953125 C 9.421875 -11.660156 9.390625 -11.375 9.390625 -11.09375 C 9.390625 -10.65625 9.421875 -10.210938 9.484375 -9.765625 C 9.546875 -9.328125 9.609375 -8.890625 9.671875 -8.453125 C 10.046875 -8.578125 10.648438 -8.78125 11.484375 -9.0625 C 12.316406 -9.34375 13.1875 -9.625 14.09375 -9.90625 C 15 -10.195312 15.875 -10.441406 16.71875 -10.640625 C 17.570312 -10.847656 18.203125 -10.953125 18.609375 -10.953125 C 19.078125 -10.953125 19.515625 -10.847656 19.921875 -10.640625 C 20.328125 -10.441406 20.671875 -10.175781 20.953125 -9.84375 C 21.234375 -9.507812 21.457031 -9.125 21.625 -8.6875 C 21.800781 -8.25 21.890625 -7.8125 21.890625 -7.375 Z M 21.890625 -7.375 "/></g></g></g><g fill="#9b4a23" fill-opacity="1"><g transform="translate(237.559745, 227.286568)"><g><path d="M 24.34375 -24.71875 C 24.34375 -22.550781 23.835938 -20.601562 22.828125 -18.875 C 21.828125 -17.15625 20.5 -15.640625 18.84375 -14.328125 C 19.34375 -13.578125 19.859375 -12.695312 20.390625 -11.6875 C 20.921875 -10.6875 21.394531 -9.628906 21.8125 -8.515625 C 22.238281 -7.410156 22.582031 -6.300781 22.84375 -5.1875 C 23.113281 -4.082031 23.25 -3.054688 23.25 -2.109375 C 23.25 -1.109375 23.003906 -0.210938 22.515625 0.578125 C 22.035156 1.378906 21.21875 1.78125 20.0625 1.78125 C 19.09375 1.78125 18.253906 1.3125 17.546875 0.375 C 16.835938 -0.5625 16.207031 -1.679688 15.65625 -2.984375 C 15.113281 -4.285156 14.613281 -5.609375 14.15625 -6.953125 C 13.707031 -8.296875 13.28125 -9.375 12.875 -10.1875 C 12.3125 -10 11.765625 -9.785156 11.234375 -9.546875 C 10.703125 -9.316406 10.148438 -9.09375 9.578125 -8.875 C 9.546875 -8.1875 9.488281 -7.238281 9.40625 -6.03125 C 9.332031 -4.832031 9.160156 -3.632812 8.890625 -2.4375 C 8.628906 -1.25 8.234375 -0.21875 7.703125 0.65625 C 7.171875 1.53125 6.4375 1.96875 5.5 1.96875 C 4.46875 1.96875 3.664062 1.546875 3.09375 0.703125 C 2.53125 -0.140625 2.128906 -1.140625 1.890625 -2.296875 C 1.660156 -3.460938 1.53125 -4.644531 1.5 -5.84375 C 1.46875 -7.050781 1.453125 -8 1.453125 -8.6875 C 1.453125 -10.164062 1.484375 -11.613281 1.546875 -13.03125 C 1.609375 -14.457031 1.640625 -15.910156 1.640625 -17.390625 C 1.640625 -18.734375 1.613281 -20.078125 1.5625 -21.421875 C 1.519531 -22.765625 1.5 -24.128906 1.5 -25.515625 C 1.5 -25.828125 1.5 -26.222656 1.5 -26.703125 C 1.5 -27.191406 1.519531 -27.691406 1.5625 -28.203125 C 1.613281 -28.722656 1.671875 -29.21875 1.734375 -29.6875 C 1.796875 -30.15625 1.90625 -30.53125 2.0625 -30.8125 C 2.375 -31.476562 3.085938 -32.109375 4.203125 -32.703125 C 5.316406 -33.296875 6.535156 -33.816406 7.859375 -34.265625 C 9.191406 -34.722656 10.492188 -35.082031 11.765625 -35.34375 C 13.035156 -35.613281 13.984375 -35.75 14.609375 -35.75 C 16.203125 -35.75 17.609375 -35.453125 18.828125 -34.859375 C 20.054688 -34.265625 21.078125 -33.457031 21.890625 -32.4375 C 22.703125 -31.414062 23.3125 -30.238281 23.71875 -28.90625 C 24.132812 -27.582031 24.34375 -26.1875 24.34375 -24.71875 Z M 15.640625 -24.0625 C 15.640625 -24.875 15.453125 -25.488281 15.078125 -25.90625 C 14.703125 -26.332031 14.09375 -26.546875 13.25 -26.546875 C 12.625 -26.546875 11.988281 -26.4375 11.34375 -26.21875 C 10.707031 -26 10.117188 -25.75 9.578125 -25.46875 C 9.703125 -22.988281 9.75 -20.53125 9.71875 -18.09375 C 10.382812 -18.3125 11.0625 -18.59375 11.75 -18.9375 C 12.4375 -19.28125 13.066406 -19.703125 13.640625 -20.203125 C 14.222656 -20.703125 14.703125 -21.265625 15.078125 -21.890625 C 15.453125 -22.515625 15.640625 -23.238281 15.640625 -24.0625 Z M 15.640625 -24.0625 "/></g></g></g><g fill="#9b4a23" fill-opacity="1"><g transform="translate(267.374994, 227.286568)"><g><path d="M 20.578125 -33.921875 C 20.578125 -32.734375 20.171875 -31.648438 19.359375 -30.671875 C 18.546875 -29.703125 17.550781 -28.832031 16.375 -28.0625 C 15.195312 -27.300781 13.96875 -26.640625 12.6875 -26.078125 C 11.40625 -25.515625 10.289062 -25.046875 9.34375 -24.671875 C 9.34375 -24.003906 9.328125 -23.328125 9.296875 -22.640625 C 9.265625 -21.953125 9.21875 -21.265625 9.15625 -20.578125 C 10.164062 -21.078125 11.296875 -21.546875 12.546875 -21.984375 C 13.796875 -22.421875 14.984375 -22.640625 16.109375 -22.640625 C 17.023438 -22.640625 17.769531 -22.453125 18.34375 -22.078125 C 18.925781 -21.703125 19.21875 -21.046875 19.21875 -20.109375 C 19.21875 -19.078125 18.847656 -18.148438 18.109375 -17.328125 C 17.367188 -16.515625 16.484375 -15.796875 15.453125 -15.171875 C 14.421875 -14.546875 13.34375 -14.015625 12.21875 -13.578125 C 11.09375 -13.140625 10.132812 -12.796875 9.34375 -12.546875 C 9.34375 -11.515625 9.328125 -10.488281 9.296875 -9.46875 C 9.265625 -8.445312 9.21875 -7.4375 9.15625 -6.4375 C 9.125 -5.9375 9.066406 -5.304688 8.984375 -4.546875 C 8.910156 -3.796875 8.753906 -3.066406 8.515625 -2.359375 C 8.285156 -1.660156 7.953125 -1.050781 7.515625 -0.53125 C 7.078125 -0.0195312 6.515625 0.234375 5.828125 0.234375 C 5.171875 0.234375 4.601562 -0.0820312 4.125 -0.71875 C 3.65625 -1.363281 3.253906 -2.1875 2.921875 -3.1875 C 2.597656 -4.195312 2.332031 -5.316406 2.125 -6.546875 C 1.925781 -7.785156 1.769531 -9 1.65625 -10.1875 C 1.550781 -11.382812 1.488281 -12.484375 1.46875 -13.484375 C 1.457031 -14.484375 1.453125 -15.25 1.453125 -15.78125 C 1.453125 -16.1875 1.457031 -16.789062 1.46875 -17.59375 C 1.488281 -18.394531 1.503906 -19.28125 1.515625 -20.25 C 1.535156 -21.21875 1.566406 -22.234375 1.609375 -23.296875 C 1.660156 -24.367188 1.71875 -25.378906 1.78125 -26.328125 C 1.84375 -27.285156 1.925781 -28.128906 2.03125 -28.859375 C 2.144531 -29.597656 2.28125 -30.140625 2.4375 -30.484375 C 2.78125 -31.179688 3.601562 -31.863281 4.90625 -32.53125 C 6.207031 -33.207031 7.65625 -33.800781 9.25 -34.3125 C 10.851562 -34.832031 12.410156 -35.253906 13.921875 -35.578125 C 15.441406 -35.910156 16.613281 -36.078125 17.4375 -36.078125 C 17.8125 -36.078125 18.175781 -36.050781 18.53125 -36 C 18.894531 -35.957031 19.234375 -35.859375 19.546875 -35.703125 C 19.859375 -35.546875 20.109375 -35.328125 20.296875 -35.046875 C 20.484375 -34.765625 20.578125 -34.390625 20.578125 -33.921875 Z M 20.578125 -33.921875 "/></g></g></g><g fill="#9b4a23" fill-opacity="1"><g transform="translate(292.022545, 227.286568)"><g><path d="M 21.890625 -7.375 C 21.890625 -6.78125 21.734375 -6.203125 21.421875 -5.640625 C 21.109375 -5.109375 20.375 -4.476562 19.21875 -3.75 C 18.0625 -3.03125 16.773438 -2.347656 15.359375 -1.703125 C 13.953125 -1.066406 12.585938 -0.519531 11.265625 -0.0625 C 9.953125 0.382812 8.984375 0.609375 8.359375 0.609375 C 7.921875 0.609375 7.40625 0.503906 6.8125 0.296875 C 6.21875 0.0976562 5.625 -0.15625 5.03125 -0.46875 C 4.4375 -0.78125 3.894531 -1.140625 3.40625 -1.546875 C 2.914062 -1.953125 2.5625 -2.34375 2.34375 -2.71875 C 2.21875 -2.9375 2.097656 -3.375 1.984375 -4.03125 C 1.878906 -4.695312 1.785156 -5.46875 1.703125 -6.34375 C 1.628906 -7.21875 1.5625 -8.148438 1.5 -9.140625 C 1.4375 -10.128906 1.378906 -11.066406 1.328125 -11.953125 C 1.285156 -12.847656 1.253906 -13.640625 1.234375 -14.328125 C 1.222656 -15.015625 1.21875 -15.515625 1.21875 -15.828125 C 1.21875 -16.992188 1.253906 -18.328125 1.328125 -19.828125 C 1.410156 -21.328125 1.5625 -22.835938 1.78125 -24.359375 C 2 -25.878906 2.316406 -27.332031 2.734375 -28.71875 C 3.160156 -30.113281 3.738281 -31.300781 4.46875 -32.28125 C 4.6875 -32.5625 5.125 -32.859375 5.78125 -33.171875 C 6.4375 -33.484375 7.207031 -33.78125 8.09375 -34.0625 C 8.988281 -34.34375 9.953125 -34.609375 10.984375 -34.859375 C 12.023438 -35.109375 13.019531 -35.316406 13.96875 -35.484375 C 14.925781 -35.660156 15.796875 -35.800781 16.578125 -35.90625 C 17.367188 -36.019531 17.96875 -36.078125 18.375 -36.078125 C 18.84375 -36.078125 19.285156 -35.972656 19.703125 -35.765625 C 20.128906 -35.566406 20.488281 -35.296875 20.78125 -34.953125 C 21.082031 -34.609375 21.316406 -34.222656 21.484375 -33.796875 C 21.660156 -33.378906 21.75 -32.9375 21.75 -32.46875 C 21.75 -32.0625 21.691406 -31.71875 21.578125 -31.4375 C 21.472656 -31.15625 21.3125 -30.835938 21.09375 -30.484375 C 20.78125 -30.078125 20.125 -29.59375 19.125 -29.03125 C 18.125 -28.46875 17.035156 -27.910156 15.859375 -27.359375 C 14.679688 -26.816406 13.550781 -26.328125 12.46875 -25.890625 C 11.394531 -25.453125 10.632812 -25.140625 10.1875 -24.953125 C 10.0625 -24.222656 9.925781 -23.488281 9.78125 -22.75 C 9.644531 -22.019531 9.546875 -21.28125 9.484375 -20.53125 C 10.460938 -21.03125 11.5625 -21.5 12.78125 -21.9375 C 14 -22.375 15.15625 -22.59375 16.25 -22.59375 C 18.476562 -22.59375 19.59375 -21.5 19.59375 -19.3125 C 19.59375 -18.78125 19.488281 -18.3125 19.28125 -17.90625 C 19.082031 -17.5 18.816406 -17.132812 18.484375 -16.8125 C 18.160156 -16.5 17.785156 -16.222656 17.359375 -15.984375 C 16.929688 -15.753906 16.515625 -15.53125 16.109375 -15.3125 C 15.109375 -14.78125 14.0625 -14.316406 12.96875 -13.921875 C 11.875 -13.535156 10.773438 -13.15625 9.671875 -12.78125 C 9.609375 -12.53125 9.546875 -12.253906 9.484375 -11.953125 C 9.421875 -11.660156 9.390625 -11.375 9.390625 -11.09375 C 9.390625 -10.65625 9.421875 -10.210938 9.484375 -9.765625 C 9.546875 -9.328125 9.609375 -8.890625 9.671875 -8.453125 C 10.046875 -8.578125 10.648438 -8.78125 11.484375 -9.0625 C 12.316406 -9.34375 13.1875 -9.625 14.09375 -9.90625 C 15 -10.195312 15.875 -10.441406 16.71875 -10.640625 C 17.570312 -10.847656 18.203125 -10.953125 18.609375 -10.953125 C 19.078125 -10.953125 19.515625 -10.847656 19.921875 -10.640625 C 20.328125 -10.441406 20.671875 -10.175781 20.953125 -9.84375 C 21.234375 -9.507812 21.457031 -9.125 21.625 -8.6875 C 21.800781 -8.25 21.890625 -7.8125 21.890625 -7.375 Z M 21.890625 -7.375 "/></g></g></g><g fill="#9b4a23" fill-opacity="1"><g transform="translate(319.864678, 227.286568)"><g><path d="M 22.171875 -23.90625 C 22.171875 -23.3125 22.097656 -22.6875 21.953125 -22.03125 C 21.816406 -21.375 21.59375 -20.765625 21.28125 -20.203125 C 20.96875 -19.640625 20.5625 -19.171875 20.0625 -18.796875 C 19.5625 -18.421875 18.953125 -18.234375 18.234375 -18.234375 C 17.128906 -18.234375 16.3125 -18.425781 15.78125 -18.8125 C 15.25 -19.207031 14.875 -19.703125 14.65625 -20.296875 C 14.4375 -20.890625 14.316406 -21.519531 14.296875 -22.1875 C 14.285156 -22.863281 14.265625 -23.5 14.234375 -24.09375 C 14.203125 -24.695312 14.097656 -25.191406 13.921875 -25.578125 C 13.753906 -25.972656 13.390625 -26.171875 12.828125 -26.171875 C 12.203125 -26.171875 11.65625 -25.941406 11.1875 -25.484375 C 10.71875 -25.035156 10.304688 -24.445312 9.953125 -23.71875 C 9.609375 -23 9.316406 -22.1875 9.078125 -21.28125 C 8.847656 -20.375 8.660156 -19.472656 8.515625 -18.578125 C 8.378906 -17.691406 8.28125 -16.847656 8.21875 -16.046875 C 8.15625 -15.242188 8.125 -14.59375 8.125 -14.09375 C 8.125 -13.4375 8.144531 -12.65625 8.1875 -11.75 C 8.238281 -10.84375 8.390625 -9.972656 8.640625 -9.140625 C 8.890625 -8.304688 9.265625 -7.597656 9.765625 -7.015625 C 10.273438 -6.441406 11 -6.15625 11.9375 -6.15625 C 12.5625 -6.15625 13.171875 -6.234375 13.765625 -6.390625 C 14.359375 -6.546875 14.953125 -6.722656 15.546875 -6.921875 C 16.140625 -7.128906 16.742188 -7.3125 17.359375 -7.46875 C 17.972656 -7.625 18.59375 -7.703125 19.21875 -7.703125 C 19.9375 -7.703125 20.53125 -7.410156 21 -6.828125 C 21.46875 -6.253906 21.703125 -5.609375 21.703125 -4.890625 C 21.703125 -3.878906 21.390625 -2.941406 20.765625 -2.078125 C 20.140625 -1.222656 19.363281 -0.46875 18.4375 0.1875 C 17.507812 0.84375 16.503906 1.359375 15.421875 1.734375 C 14.347656 2.109375 13.375 2.296875 12.5 2.296875 C 10.238281 2.296875 8.328125 1.785156 6.765625 0.765625 C 5.203125 -0.242188 3.929688 -1.554688 2.953125 -3.171875 C 1.984375 -4.785156 1.285156 -6.585938 0.859375 -8.578125 C 0.441406 -10.566406 0.234375 -12.546875 0.234375 -14.515625 C 0.234375 -15.828125 0.359375 -17.265625 0.609375 -18.828125 C 0.859375 -20.398438 1.234375 -21.976562 1.734375 -23.5625 C 2.234375 -25.144531 2.867188 -26.671875 3.640625 -28.140625 C 4.410156 -29.609375 5.3125 -30.90625 6.34375 -32.03125 C 7.375 -33.164062 8.539062 -34.078125 9.84375 -34.765625 C 11.144531 -35.453125 12.578125 -35.796875 14.140625 -35.796875 C 15.671875 -35.796875 16.953125 -35.410156 17.984375 -34.640625 C 19.023438 -33.878906 19.859375 -32.910156 20.484375 -31.734375 C 21.109375 -30.554688 21.546875 -29.269531 21.796875 -27.875 C 22.046875 -26.488281 22.171875 -25.164062 22.171875 -23.90625 Z M 22.171875 -23.90625 "/></g></g></g><g fill="#9b4a23" fill-opacity="1"><g transform="translate(347.75379, 227.286568)"><g><path d="M 21.75 -32.09375 C 21.75 -31.300781 21.441406 -30.582031 20.828125 -29.9375 C 20.222656 -29.300781 19.488281 -28.738281 18.625 -28.25 C 17.769531 -27.769531 16.882812 -27.375 15.96875 -27.0625 C 15.0625 -26.75 14.3125 -26.53125 13.71875 -26.40625 C 13.46875 -23.988281 13.269531 -21.582031 13.125 -19.1875 C 12.988281 -16.789062 12.921875 -14.390625 12.921875 -11.984375 C 12.921875 -10.691406 12.953125 -9.421875 13.015625 -8.171875 C 13.078125 -6.921875 13.109375 -5.671875 13.109375 -4.421875 C 13.109375 -3.859375 13.050781 -3.238281 12.9375 -2.5625 C 12.832031 -1.882812 12.644531 -1.25 12.375 -0.65625 C 12.113281 -0.0625 11.75 0.4375 11.28125 0.84375 C 10.8125 1.25 10.226562 1.453125 9.53125 1.453125 C 8.71875 1.453125 8.066406 1.222656 7.578125 0.765625 C 7.097656 0.316406 6.722656 -0.234375 6.453125 -0.890625 C 6.191406 -1.546875 6.015625 -2.242188 5.921875 -2.984375 C 5.828125 -3.722656 5.78125 -4.390625 5.78125 -4.984375 C 5.71875 -6.859375 5.671875 -8.742188 5.640625 -10.640625 C 5.609375 -12.535156 5.59375 -14.4375 5.59375 -16.34375 C 5.59375 -17.945312 5.597656 -19.515625 5.609375 -21.046875 C 5.628906 -22.578125 5.640625 -24.144531 5.640625 -25.75 C 5.203125 -25.6875 4.753906 -25.640625 4.296875 -25.609375 C 3.847656 -25.578125 3.382812 -25.5625 2.90625 -25.5625 C 2.53125 -25.5625 2.035156 -25.597656 1.421875 -25.671875 C 0.816406 -25.753906 0.234375 -25.894531 -0.328125 -26.09375 C -0.890625 -26.300781 -1.375 -26.582031 -1.78125 -26.9375 C -2.1875 -27.300781 -2.390625 -27.765625 -2.390625 -28.328125 C -2.390625 -29.265625 -2.019531 -30.085938 -1.28125 -30.796875 C -0.550781 -31.503906 0.378906 -32.113281 1.515625 -32.625 C 2.660156 -33.144531 3.929688 -33.582031 5.328125 -33.9375 C 6.722656 -34.300781 8.101562 -34.582031 9.46875 -34.78125 C 10.832031 -34.988281 12.082031 -35.140625 13.21875 -35.234375 C 14.363281 -35.328125 15.25 -35.375 15.875 -35.375 C 16.46875 -35.375 17.101562 -35.347656 17.78125 -35.296875 C 18.457031 -35.253906 19.09375 -35.125 19.6875 -34.90625 C 20.28125 -34.6875 20.769531 -34.359375 21.15625 -33.921875 C 21.550781 -33.484375 21.75 -32.875 21.75 -32.09375 Z M 21.75 -32.09375 "/></g></g></g></svg>